PathFileType	4	(X/Y/Z)	Patient4_TMGait_0pt7_02_right_15.trc.trc
DataRate	CameraRate	NumFrames	NumMarkers	Units	OrigDataRate	OrigDataStartFrame	OrigNumFrames
83.832335329341	83.832335329341	4	33	mm	83.832335329341	106	       141
Frame#	Time	Sacral			L.Shoulder			Chest			R.Shoulder			Neck			R.ASIS			L.ASIS			R.Thigh.Superior			R.Thigh.Lateral			R.Thigh.Inferior			R.Patella			L.Thigh.Superior			L.Thigh.Lateral			L.Thigh.Inferior			L.Patella			L.Shank.Superior			L.Shank.Lateral			L.Shank.Inferior			R.Shank.Superior			R.Shank.Lateral			R.Shank.Inferior			R.Heel			R.Midfoot.Superior			R.Midfoot.Lateral			R.Toe			L.Heel			L.Midfoot.Lateral			L.Midfoot.Superior			L.Toe			L.Elbow			L.Wrist			R.Elbow			R.Wrist			
		X1	Y1	Z1	X2	Y2	Z2	X3	Y3	Z3	X4	Y4	Z4	X5	Y5	Z5	X6	Y6	Z6	X7	Y7	Z7	X8	Y8	Z8	X9	Y9	Z9	X10	Y10	Z10	X11	Y11	Z11	X12	Y12	Z12	X13	Y13	Z13	X14	Y14	Z14	X15	Y15	Z15	X16	Y16	Z16	X17	Y17	Z17	X18	Y18	Z18	X19	Y19	Z19	X20	Y20	Z20	X21	Y21	Z21	X22	Y22	Z22	X23	Y23	Z23	X24	Y24	Z24	X25	Y25	Z25	X26	Y26	Z26	X27	Y27	Z27	X28	Y28	Z28	X29	Y29	Z29	X30	Y30	Z30	X31	Y31	Z31	X32	Y32	Z32	X33	Y33	Z33	

106	17.522500000000	778.294169005865	1017.622956180828	434.301408111240	981.499492474279	1437.046490997800	253.392425996617	1078.607572643027	1361.546066955016	416.606925043251	995.621466536566	1443.629453685890	587.522150563665	983.052109870017	1498.757257145905	406.966463053845	1002.640746226512	948.887511252598	554.551840451080	992.400335498053	965.872200953860	280.515507969666	1093.201485831620	797.370047733009	530.219662916546	1066.224877371956	674.459052956778	608.623858015447	1161.152689925323	642.386007216583	532.109400021985	1191.271578289578	532.460170182060	557.236741877658	1021.883094094426	748.491662924327	307.039877003761	917.184604334627	641.221912848851	253.997329621120	994.981602151176	556.355113007860	313.652524699099	989.080853156899	489.534738308059	325.662175234228	963.119118461399	420.258962629678	320.667160797369	869.855094817950	305.240755607739	278.170645737659	924.777800528267	196.071326391430	350.881698444894	1124.226834395599	449.803198382784	563.969601359811	1007.550206613611	395.353095844614	621.660173622508	1010.399255984969	284.153760808534	574.543976261397	821.340146623506	197.016105776933	543.311504212253	995.567984328353	159.444576724872	588.762871932120	884.934077846504	143.078622672730	616.976303919767	1071.132408461263	53.045050079906	613.095023420636	797.610042036962	40.133992544946	403.247280397960	870.629659207199	36.011990449201	321.366313145195	954.848994185433	96.528666458083	345.176347819111	1082.645477265904	41.067964700626	316.662600567856	1021.327297210093	1104.067940866837	106.766597046920	1202.533014899758	917.116856305825	125.787229402041	923.970130433157	1102.151545494883	704.119385374180	1045.906303502234	872.176385114532	701.286083737048	
107	17.534428571429	777.497780416837	1017.475555594790	433.969691755286	982.005473996519	1436.894957119322	253.195619559256	1078.309694893528	1361.054411291872	416.728151481776	994.826772562876	1443.087689403098	587.371652353013	982.779309300475	1498.474943347741	406.752127632533	1001.733726277171	948.652594641136	554.498942195239	991.692362295272	965.754827521187	280.347556916149	1092.930348719772	798.975177595595	529.738122684026	1067.955737145828	675.750008139622	608.241949371467	1162.518071790838	644.672123182800	531.062075022657	1194.884761703318	536.518356147962	556.279768879216	1018.743285509704	747.370066106772	307.142263531815	912.049733788267	641.415573527699	253.665937048329	988.496910223391	555.569773574833	313.189345004369	981.703588831588	489.086397556545	325.134405964285	955.619758881638	420.126107730353	320.175516922480	861.789595747568	305.427740985820	277.933896427096	916.581426901974	196.073136078503	350.588218878580	1131.681114567536	451.810487666020	563.680420371547	1018.767719963421	391.248265661803	622.435133861544	1027.318037798896	280.223569736720	575.442181259817	843.264033712492	182.557393838987	545.450794129964	1019.475779517501	155.069770787586	590.543209319391	909.965093090007	132.858971514312	619.233011270509	1100.804906943910	53.243091120832	615.417724323400	789.223889122448	40.215294381254	403.189585679825	862.235309313112	35.999379197215	321.361828583379	946.483338485174	96.528718640788	345.081340840796	1074.245773949679	41.041374896009	316.648941827584	1029.038628464160	1106.619727728355	104.820102179250	1219.183983370577	929.095815779155	126.814865679529	917.679438200774	1102.417216625217	703.332743549020	1017.444027467763	861.243454591142	707.674751292141	
108	17.546357142857	776.868161279717	1017.168654054211	433.811113007986	982.453940482722	1436.602493702082	253.194722964288	1078.089135488155	1360.406317365568	416.958284483984	994.227911061462	1442.328545106168	587.421216653722	982.599762757617	1498.026895443190	406.751651712450	1000.975376427210	948.164079168597	554.528699202112	991.069868012995	965.511109799183	280.269902239493	1092.353129912304	799.811927614997	529.251667584437	1069.019456167555	676.378093702495	607.876920229494	1163.036006499900	645.993103367777	529.973091176602	1197.433658875305	539.822159356432	555.274490330526	1015.858706465113	746.161865589511	307.175359890791	907.063733883947	641.539774516821	253.413048729176	982.210300419470	554.757084312216	312.758918691579	974.570276752151	488.598799792030	324.642976221388	948.290511729096	419.938175599050	319.752184143306	853.871542614730	305.597212955231	277.739768647214	908.453539514631	196.032425881570	350.347290049555	1138.318768055966	453.327674342914	563.423161733769	1029.785195133336	386.630681656239	623.366640358004	1044.259125667945	276.136102626191	576.468934220587	866.171766215102	167.752720260213	547.753831790870	1043.750278776872	150.864595517691	592.420583466719	935.825624831268	122.721311965671	621.693194876209	1130.811791943791	54.253693772028	617.984379377086	780.850856734552	40.291444672455	403.129304179455	853.836156401147	35.982456210477	321.361381455772	938.113626229876	96.518202772789	345.006689997022	1065.840560766486	41.019548108914	316.636008564547	1036.062885753707	1109.144016031145	103.026551598194	1234.679205099732	941.624017836109	128.144866633905	910.998007862395	1102.822585027358	702.677406634807	988.846278135077	853.153587263047	713.890936005471	
109	17.558285714286	776.410827935055	1016.710589062677	433.824550930934	982.851503933646	1436.172701695218	253.387500641758	1077.955732830300	1359.611352572298	417.296486518773	993.838350196300	1441.380308458227	587.665223769739	982.526660199296	1497.419576727396	406.961224745243	1000.382234127040	947.432100850885	554.631653695403	990.530258800921	965.148015121778	280.275157646336	1091.486785735373	799.859161867207	528.780259382292	1069.380510360052	676.319231379863	607.566192788760	1162.723840687521	646.325759596887	528.922533460403	1198.921510725570	542.328481560419	554.275044770245	1013.189106968234	744.871252462687	307.124407286104	902.230493953766	641.597591767257	253.238835365603	976.127522517600	553.914562489382	312.369286184164	967.682143915408	488.056831306131	324.200362517552	941.130659464340	419.691425150553	319.402778041671	846.099043013155	305.749678565315	277.588938269405	900.391872999533	195.948672073284	350.159985975839	1144.109153705346	454.360645595692	563.203437125149	1040.553677401572	381.593533502882	624.423306299832	1061.105108845530	272.032605648728	577.543546405439	889.959613087858	152.906304895612	550.079065386783	1068.219264932274	147.015626300692	594.261082078052	962.353167538860	112.889820945972	624.187012693082	1160.880909909526	56.227002913198	620.569063219230	772.483167766326	40.359362502157	403.070100423758	845.428789944853	35.961181539522	321.364482245484	929.735385447836	96.494940248940	344.951757554715	1057.425333307223	41.003631117347	316.623223582600	1042.427807255712	1111.579857965148	101.404112275709	1248.938558758997	954.565297658596	129.735055376776	903.890596116097	1103.493564177679	702.213595263221	960.685967208036	847.862614611204	719.776033808973	
